# xmcd
#
# Track frame offsets:
#	150
#	20288
#	33648
#	55791
#	73573
#	90802
#	111404
#	126381
#	141710
#	162439
#	179161
#	200470
#	226353
#	249903
#	263507
#	283137
#	304132
#
# Disc length: 4318 seconds
#
# Revision: 2
# Processed by: cddbd v1.5.2PL0 Copyright (c) Steve Scherf et al.
# Submitted via: EasyCDDAExtractor 15.3.0.1
#
DISCID=f910dc11
DTITLE=Rocio Jurado - Volcan De Amor Y Fuego - CD 3
DYEAR=2006
DGENRE=Latin
TTITLE0=Se Nos Rompio El Amor
TTITLE1=Que No Daria Yo
TTITLE2=Aprendiz De Hombre
TTITLE3=Perdida En Ti
TTITLE4=La Noche
TTITLE5=Lo Sabemos Los Tres
TTITLE6=Por Si Regresa
TTITLE7=Dame Tu Sonrisa
TTITLE8=Tango Tarango
TTITLE9=No Sigas
TTITLE10=Mejor Te Vas
TTITLE11=Muero Por Ti
TTITLE12=Punto De Partida
TTITLE13=Quieto
TTITLE14=Contigo
TTITLE15=Por Que Me Habras Besado (Duo Con Juan Pardo)
TTITLE16=La Mujer Del Torero
EXTD=
EXTT0=
EXTT1=
EXTT2=
EXTT3=
EXTT4=
EXTT5=
EXTT6=
EXTT7=
EXTT8=
EXTT9=
EXTT10=
EXTT11=
EXTT12=
EXTT13=
EXTT14=
EXTT15=
EXTT16=
PLAYORDER=
